<?xml version="1.0" encoding="UTF-8"?><svg xmlns="http://www.w3.org/2000/svg" xmlns:xlink="http://www.w3.org/1999/xlink" width="375" zoomAndPan="magnify" viewBox="0 0 375 374.999991" height="374.999991" preserveAspectRatio="xMidYMid meet" version="1.0"><defs><clipPath id="clip-0"><path d="M 13.773438 13.773438 L 361.023438 13.773438 L 361.023438 361.023438 L 13.773438 361.023438 Z M 13.773438 13.773438 " clip-rule="nonzero"/></clipPath></defs><path fill="rgb(94.509888%, 74.508667%, 2.749634%)" d="M 252.507812 143.992188 C 252.507812 145.058594 252.480469 146.121094 252.429688 147.1875 C 252.375 148.25 252.296875 149.3125 252.195312 150.375 C 252.089844 151.433594 251.957031 152.492188 251.800781 153.546875 C 251.644531 154.597656 251.464844 155.648438 251.257812 156.695312 C 251.046875 157.738281 250.816406 158.777344 250.554688 159.8125 C 250.296875 160.84375 250.011719 161.871094 249.703125 162.890625 C 249.394531 163.910156 249.058594 164.921875 248.703125 165.925781 C 248.34375 166.929688 247.957031 167.921875 247.550781 168.90625 C 247.144531 169.890625 246.710938 170.867188 246.257812 171.828125 C 245.800781 172.792969 245.320312 173.746094 244.820312 174.683594 C 244.316406 175.625 243.792969 176.550781 243.242188 177.464844 C 242.695312 178.378906 242.125 179.277344 241.535156 180.164062 C 240.941406 181.050781 240.328125 181.921875 239.695312 182.777344 C 239.058594 183.632812 238.402344 184.472656 237.726562 185.296875 C 237.050781 186.121094 236.355469 186.925781 235.640625 187.714844 C 234.925781 188.507812 234.191406 189.277344 233.4375 190.03125 C 232.683594 190.785156 231.914062 191.519531 231.121094 192.234375 C 230.332031 192.949219 229.527344 193.644531 228.703125 194.320312 C 227.878906 194.996094 227.039062 195.652344 226.183594 196.289062 C 225.328125 196.921875 224.457031 197.535156 223.570312 198.128906 C 222.683594 198.71875 221.785156 199.289062 220.871094 199.835938 C 219.957031 200.386719 219.03125 200.910156 218.089844 201.414062 C 217.152344 201.914062 216.199219 202.394531 215.234375 202.851562 C 214.273438 203.304688 213.296875 203.738281 212.3125 204.144531 C 211.328125 204.550781 210.335938 204.9375 209.332031 205.296875 C 208.328125 205.652344 207.316406 205.988281 206.296875 206.296875 C 205.277344 206.605469 204.25 206.890625 203.21875 207.148438 C 202.183594 207.410156 201.144531 207.640625 200.101562 207.851562 C 199.054688 208.058594 198.003906 208.238281 196.953125 208.394531 C 195.898438 208.550781 194.839844 208.683594 193.78125 208.789062 C 192.71875 208.890625 191.65625 208.96875 190.59375 209.023438 C 189.527344 209.074219 188.464844 209.101562 187.398438 209.101562 C 186.332031 209.101562 185.265625 209.074219 184.203125 209.023438 C 183.140625 208.96875 182.078125 208.890625 181.015625 208.789062 C 179.957031 208.683594 178.898438 208.550781 177.84375 208.394531 C 176.789062 208.238281 175.742188 208.058594 174.695312 207.851562 C 173.652344 207.640625 172.609375 207.410156 171.578125 207.148438 C 170.542969 206.890625 169.515625 206.605469 168.496094 206.296875 C 167.476562 205.988281 166.464844 205.652344 165.464844 205.296875 C 164.460938 204.9375 163.464844 204.550781 162.480469 204.144531 C 161.496094 203.738281 160.523438 203.304688 159.558594 202.851562 C 158.597656 202.394531 157.644531 201.914062 156.707031 201.414062 C 155.765625 200.910156 154.839844 200.386719 153.925781 199.835938 C 153.011719 199.289062 152.109375 198.71875 151.226562 198.128906 C 150.339844 197.535156 149.46875 196.921875 148.613281 196.289062 C 147.757812 195.652344 146.917969 194.996094 146.09375 194.320312 C 145.269531 193.644531 144.460938 192.949219 143.671875 192.234375 C 142.882812 191.519531 142.113281 190.785156 141.359375 190.03125 C 140.605469 189.277344 139.871094 188.507812 139.15625 187.714844 C 138.4375 186.925781 137.742188 186.121094 137.066406 185.296875 C 136.390625 184.472656 135.734375 183.632812 135.101562 182.777344 C 134.464844 181.921875 133.851562 181.050781 133.261719 180.164062 C 132.667969 179.277344 132.097656 178.378906 131.550781 177.464844 C 131.003906 176.550781 130.480469 175.625 129.976562 174.683594 C 129.472656 173.746094 128.996094 172.792969 128.539062 171.828125 C 128.085938 170.867188 127.652344 169.890625 127.246094 168.90625 C 126.835938 167.921875 126.453125 166.929688 126.09375 165.925781 C 125.734375 164.921875 125.402344 163.910156 125.09375 162.890625 C 124.78125 161.871094 124.5 160.84375 124.238281 159.8125 C 123.980469 158.777344 123.746094 157.738281 123.539062 156.695312 C 123.332031 155.648438 123.148438 154.597656 122.992188 153.546875 C 122.835938 152.492188 122.707031 151.433594 122.601562 150.375 C 122.496094 149.3125 122.417969 148.25 122.367188 147.1875 C 122.316406 146.121094 122.289062 145.058594 122.289062 143.992188 C 122.289062 142.925781 122.316406 141.859375 122.367188 140.796875 C 122.417969 139.734375 122.496094 138.671875 122.601562 137.609375 C 122.707031 136.550781 122.835938 135.492188 122.992188 134.4375 C 123.148438 133.382812 123.332031 132.335938 123.539062 131.289062 C 123.746094 130.246094 123.980469 129.203125 124.238281 128.171875 C 124.5 127.136719 124.78125 126.109375 125.09375 125.089844 C 125.402344 124.070312 125.734375 123.058594 126.09375 122.058594 C 126.453125 121.054688 126.835938 120.058594 127.246094 119.074219 C 127.652344 118.089844 128.085938 117.117188 128.539062 116.152344 C 128.996094 115.191406 129.472656 114.238281 129.976562 113.300781 C 130.480469 112.359375 131.003906 111.433594 131.550781 110.519531 C 132.097656 109.605469 132.667969 108.703125 133.261719 107.820312 C 133.851562 106.933594 134.464844 106.0625 135.101562 105.207031 C 135.734375 104.351562 136.390625 103.511719 137.066406 102.6875 C 137.742188 101.863281 138.4375 101.054688 139.15625 100.265625 C 139.871094 99.476562 140.605469 98.707031 141.359375 97.953125 C 142.113281 97.199219 142.882812 96.464844 143.671875 95.75 C 144.460938 95.03125 145.269531 94.335938 146.09375 93.660156 C 146.917969 92.984375 147.757812 92.328125 148.613281 91.695312 C 149.46875 91.058594 150.339844 90.445312 151.226562 89.855469 C 152.109375 89.261719 153.011719 88.691406 153.925781 88.144531 C 154.839844 87.597656 155.765625 87.074219 156.707031 86.570312 C 157.644531 86.066406 158.597656 85.589844 159.558594 85.132812 C 160.523438 84.679688 161.496094 84.246094 162.480469 83.839844 C 163.464844 83.429688 164.460938 83.046875 165.464844 82.6875 C 166.464844 82.328125 167.476562 81.996094 168.496094 81.6875 C 169.515625 81.375 170.542969 81.09375 171.578125 80.832031 C 172.609375 80.574219 173.652344 80.339844 174.695312 80.132812 C 175.742188 79.925781 176.789062 79.742188 177.84375 79.585938 C 178.898438 79.429688 179.957031 79.300781 181.015625 79.195312 C 182.078125 79.089844 183.140625 79.011719 184.203125 78.960938 C 185.265625 78.910156 186.332031 78.882812 187.398438 78.882812 C 188.464844 78.882812 189.527344 78.910156 190.59375 78.960938 C 191.65625 79.011719 192.71875 79.089844 193.78125 79.195312 C 194.839844 79.300781 195.898438 79.429688 196.953125 79.585938 C 198.003906 79.742188 199.054688 79.925781 200.101562 80.132812 C 201.144531 80.339844 202.183594 80.574219 203.21875 80.832031 C 204.25 81.09375 205.277344 81.375 206.296875 81.6875 C 207.316406 81.996094 208.328125 82.328125 209.332031 82.6875 C 210.335938 83.046875 211.328125 83.429688 212.3125 83.839844 C 213.296875 84.246094 214.273438 84.679688 215.234375 85.132812 C 216.199219 85.589844 217.152344 86.066406 218.089844 86.570312 C 219.03125 87.074219 219.957031 87.597656 220.871094 88.144531 C 221.785156 88.691406 222.683594 89.261719 223.570312 89.855469 C 224.457031 90.445312 225.328125 91.058594 226.183594 91.695312 C 227.039062 92.328125 227.878906 92.984375 228.703125 93.660156 C 229.527344 94.335938 230.332031 95.03125 231.121094 95.75 C 231.914062 96.464844 232.683594 97.199219 233.4375 97.953125 C 234.191406 98.707031 234.925781 99.476562 235.640625 100.265625 C 236.355469 101.054688 237.050781 101.863281 237.726562 102.6875 C 238.402344 103.511719 239.058594 104.351562 239.695312 105.207031 C 240.328125 106.0625 240.941406 106.933594 241.535156 107.820312 C 242.125 108.703125 242.695312 109.605469 243.242188 110.519531 C 243.792969 111.433594 244.316406 112.359375 244.820312 113.300781 C 245.320312 114.238281 245.800781 115.191406 246.257812 116.152344 C 246.710938 117.117188 247.144531 118.089844 247.550781 119.074219 C 247.957031 120.058594 248.34375 121.054688 248.703125 122.058594 C 249.058594 123.058594 249.394531 124.070312 249.703125 125.089844 C 250.011719 126.109375 250.296875 127.136719 250.554688 128.171875 C 250.816406 129.203125 251.046875 130.246094 251.257812 131.289062 C 251.464844 132.335938 251.644531 133.382812 251.800781 134.4375 C 251.957031 135.492188 252.089844 136.550781 252.195312 137.609375 C 252.296875 138.671875 252.375 139.734375 252.429688 140.796875 C 252.480469 141.859375 252.507812 142.925781 252.507812 143.992188 Z M 252.507812 143.992188 " fill-opacity="1" fill-rule="nonzero"/><g clip-path="url(#clip-0)"><path fill="rgb(94.509888%, 74.508667%, 2.749634%)" d="M 13.773438 187.398438 C 13.773438 184.554688 13.84375 181.714844 13.980469 178.878906 C 14.121094 176.039062 14.332031 173.207031 14.609375 170.378906 C 14.886719 167.550781 15.234375 164.734375 15.652344 161.921875 C 16.070312 159.109375 16.554688 156.3125 17.109375 153.523438 C 17.664062 150.738281 18.285156 147.964844 18.976562 145.210938 C 19.667969 142.453125 20.425781 139.714844 21.25 136.996094 C 22.074219 134.277344 22.964844 131.582031 23.921875 128.90625 C 24.878906 126.230469 25.902344 123.578125 26.988281 120.953125 C 28.078125 118.328125 29.226562 115.730469 30.441406 113.164062 C 31.65625 110.59375 32.933594 108.058594 34.273438 105.550781 C 35.613281 103.046875 37.015625 100.574219 38.476562 98.136719 C 39.9375 95.699219 41.457031 93.300781 43.035156 90.9375 C 44.613281 88.574219 46.25 86.25 47.941406 83.96875 C 49.632812 81.6875 51.382812 79.449219 53.183594 77.25 C 54.988281 75.054688 56.84375 72.902344 58.75 70.796875 C 60.660156 68.691406 62.617188 66.636719 64.625 64.625 C 66.636719 62.617188 68.691406 60.660156 70.796875 58.75 C 72.902344 56.84375 75.054688 54.988281 77.25 53.183594 C 79.449219 51.382812 81.6875 49.632812 83.96875 47.941406 C 86.25 46.25 88.574219 44.613281 90.9375 43.035156 C 93.300781 41.457031 95.699219 39.9375 98.136719 38.476562 C 100.574219 37.015625 103.046875 35.613281 105.550781 34.273438 C 108.058594 32.933594 110.59375 31.65625 113.164062 30.441406 C 115.730469 29.226562 118.328125 28.078125 120.953125 26.988281 C 123.578125 25.902344 126.230469 24.878906 128.90625 23.921875 C 131.582031 22.964844 134.277344 22.074219 136.996094 21.25 C 139.714844 20.425781 142.453125 19.667969 145.210938 18.976562 C 147.964844 18.285156 150.738281 17.664062 153.523438 17.109375 C 156.3125 16.554688 159.109375 16.070312 161.921875 15.652344 C 164.734375 15.234375 167.550781 14.886719 170.378906 14.609375 C 173.207031 14.332031 176.039062 14.121094 178.878906 13.980469 C 181.714844 13.84375 184.554688 13.773438 187.398438 13.773438 C 190.238281 13.773438 193.078125 13.84375 195.917969 13.980469 C 198.753906 14.121094 201.589844 14.332031 204.417969 14.609375 C 207.242188 14.886719 210.0625 15.234375 212.875 15.652344 C 215.683594 16.070312 218.484375 16.554688 221.269531 17.109375 C 224.058594 17.664062 226.828125 18.285156 229.585938 18.976562 C 232.339844 19.667969 235.078125 20.425781 237.796875 21.25 C 240.519531 22.074219 243.214844 22.964844 245.890625 23.921875 C 248.566406 24.878906 251.214844 25.902344 253.839844 26.988281 C 256.464844 28.078125 259.0625 29.226562 261.632812 30.441406 C 264.199219 31.65625 266.738281 32.933594 269.242188 34.273438 C 271.75 35.613281 274.222656 37.015625 276.660156 38.476562 C 279.097656 39.9375 281.496094 41.457031 283.859375 43.035156 C 286.222656 44.613281 288.542969 46.25 290.824219 47.941406 C 293.109375 49.632812 295.347656 51.382812 297.542969 53.183594 C 299.742188 54.988281 301.890625 56.84375 303.996094 58.75 C 306.101562 60.660156 308.160156 62.617188 310.167969 64.625 C 312.179688 66.636719 314.136719 68.691406 316.046875 70.796875 C 317.953125 72.902344 319.808594 75.054688 321.613281 77.25 C 323.414062 79.449219 325.160156 81.6875 326.855469 83.96875 C 328.546875 86.25 330.183594 88.574219 331.761719 90.9375 C 333.339844 93.300781 334.859375 95.699219 336.320312 98.136719 C 337.78125 100.574219 339.183594 103.046875 340.519531 105.550781 C 341.859375 108.058594 343.136719 110.59375 344.351562 113.164062 C 345.566406 115.730469 346.71875 118.328125 347.804688 120.953125 C 348.894531 123.578125 349.917969 126.230469 350.875 128.90625 C 351.832031 131.582031 352.722656 134.277344 353.546875 136.996094 C 354.371094 139.714844 355.128906 142.453125 355.820312 145.210938 C 356.511719 147.964844 357.132812 150.738281 357.6875 153.523438 C 358.242188 156.3125 358.726562 159.109375 359.144531 161.921875 C 359.558594 164.734375 359.910156 167.550781 360.1875 170.378906 C 360.464844 173.207031 360.675781 176.039062 360.8125 178.878906 C 360.953125 181.714844 361.023438 184.554688 361.023438 187.398438 C 361.023438 190.238281 360.953125 193.078125 360.8125 195.917969 C 360.675781 198.753906 360.464844 201.589844 360.1875 204.417969 C 359.910156 207.242188 359.558594 210.0625 359.144531 212.875 C 358.726562 215.683594 358.242188 218.484375 357.6875 221.269531 C 357.132812 224.058594 356.511719 226.828125 355.820312 229.585938 C 355.128906 232.339844 354.371094 235.078125 353.546875 237.796875 C 352.722656 240.519531 351.832031 243.214844 350.875 245.890625 C 349.917969 248.566406 348.894531 251.214844 347.804688 253.839844 C 346.71875 256.464844 345.566406 259.0625 344.351562 261.632812 C 343.136719 264.199219 341.859375 266.738281 340.519531 269.242188 C 339.183594 271.75 337.78125 274.222656 336.320312 276.660156 C 334.859375 279.097656 333.339844 281.496094 331.761719 283.859375 C 330.183594 286.222656 328.546875 288.542969 326.855469 290.824219 C 325.160156 293.109375 323.414062 295.347656 321.613281 297.542969 C 319.808594 299.742188 317.953125 301.890625 316.046875 303.996094 C 314.136719 306.101562 312.179688 308.160156 310.167969 310.167969 C 308.160156 312.179688 306.101562 314.136719 303.996094 316.046875 C 301.890625 317.953125 299.742188 319.808594 297.542969 321.613281 C 295.347656 323.414062 293.109375 325.160156 290.824219 326.855469 C 288.542969 328.546875 286.222656 330.183594 283.859375 331.761719 C 281.496094 333.339844 279.097656 334.859375 276.660156 336.320312 C 274.222656 337.78125 271.75 339.183594 269.242188 340.519531 C 266.738281 341.859375 264.199219 343.136719 261.632812 344.351562 C 259.0625 345.566406 256.464844 346.71875 253.839844 347.804688 C 251.214844 348.894531 248.566406 349.917969 245.890625 350.875 C 243.214844 351.832031 240.519531 352.722656 237.796875 353.546875 C 235.078125 354.371094 232.339844 355.128906 229.585938 355.820312 C 226.828125 356.511719 224.058594 357.132812 221.269531 357.6875 C 218.484375 358.242188 215.683594 358.726562 212.875 359.144531 C 210.0625 359.558594 207.242188 359.910156 204.417969 360.1875 C 201.589844 360.464844 198.753906 360.675781 195.917969 360.8125 C 193.078125 360.953125 190.238281 361.023438 187.398438 361.023438 C 184.554688 361.023438 181.714844 360.953125 178.878906 360.8125 C 176.039062 360.675781 173.207031 360.464844 170.378906 360.1875 C 167.550781 359.910156 164.734375 359.558594 161.921875 359.144531 C 159.109375 358.726562 156.3125 358.242188 153.523438 357.6875 C 150.738281 357.132812 147.964844 356.511719 145.210938 355.820312 C 142.453125 355.128906 139.714844 354.371094 136.996094 353.546875 C 134.277344 352.722656 131.582031 351.832031 128.90625 350.875 C 126.230469 349.917969 123.578125 348.894531 120.953125 347.804688 C 118.328125 346.71875 115.730469 345.566406 113.164062 344.351562 C 110.59375 343.136719 108.058594 341.859375 105.550781 340.519531 C 103.046875 339.183594 100.574219 337.78125 98.136719 336.320312 C 95.699219 334.859375 93.300781 333.339844 90.9375 331.761719 C 88.574219 330.183594 86.25 328.546875 83.96875 326.855469 C 81.6875 325.160156 79.449219 323.414062 77.25 321.613281 C 75.054688 319.808594 72.902344 317.953125 70.796875 316.046875 C 68.691406 314.136719 66.636719 312.179688 64.625 310.167969 C 62.617188 308.160156 60.660156 306.101562 58.75 303.996094 C 56.84375 301.890625 54.988281 299.742188 53.183594 297.542969 C 51.382812 295.347656 49.632812 293.109375 47.941406 290.824219 C 46.25 288.542969 44.613281 286.222656 43.035156 283.859375 C 41.457031 281.496094 39.9375 279.097656 38.476562 276.660156 C 37.015625 274.222656 35.613281 271.75 34.273438 269.242188 C 32.933594 266.738281 31.65625 264.199219 30.441406 261.632812 C 29.226562 259.0625 28.078125 256.464844 26.988281 253.839844 C 25.902344 251.214844 24.878906 248.566406 23.921875 245.890625 C 22.964844 243.214844 22.074219 240.519531 21.25 237.796875 C 20.425781 235.078125 19.667969 232.339844 18.976562 229.585938 C 18.285156 226.828125 17.664062 224.058594 17.109375 221.269531 C 16.554688 218.484375 16.070312 215.683594 15.652344 212.875 C 15.234375 210.0625 14.886719 207.242188 14.609375 204.417969 C 14.332031 201.589844 14.121094 198.753906 13.980469 195.917969 C 13.84375 193.078125 13.773438 190.238281 13.773438 187.398438 Z M 187.398438 35.476562 C 183.84375 35.476562 180.292969 35.601562 176.75 35.851562 C 173.203125 36.097656 169.671875 36.472656 166.152344 36.96875 C 162.632812 37.46875 159.136719 38.085938 155.660156 38.828125 C 152.183594 39.574219 148.738281 40.4375 145.324219 41.421875 C 141.90625 42.40625 138.53125 43.507812 135.195312 44.730469 C 131.855469 45.953125 128.566406 47.289062 125.320312 48.742188 C 122.078125 50.191406 118.890625 51.757812 115.753906 53.433594 C 112.621094 55.109375 109.550781 56.894531 106.539062 58.785156 C 103.53125 60.675781 100.59375 62.671875 97.722656 64.769531 C 94.855469 66.867188 92.0625 69.066406 89.347656 71.359375 C 86.632812 73.652344 84.003906 76.039062 81.457031 78.519531 C 78.910156 80.996094 76.453125 83.5625 74.085938 86.210938 C 71.71875 88.863281 69.445312 91.59375 67.269531 94.40625 C 65.09375 97.214844 63.019531 100.097656 61.046875 103.054688 C 59.074219 106.011719 57.207031 109.03125 55.445312 112.121094 C 53.683594 115.207031 52.035156 118.351562 50.492188 121.554688 C 48.953125 124.757812 47.527344 128.011719 46.214844 131.3125 C 44.902344 134.617188 43.707031 137.960938 42.632812 141.347656 C 41.554688 144.734375 40.597656 148.15625 39.757812 151.609375 C 38.921875 155.066406 38.207031 158.542969 37.613281 162.046875 C 37.019531 165.554688 36.550781 169.074219 36.207031 172.609375 C 35.859375 176.148438 35.636719 179.691406 35.539062 183.246094 C 35.445312 186.796875 35.472656 190.351562 35.625 193.902344 C 35.777344 197.453125 36.050781 200.992188 36.453125 204.523438 C 36.851562 208.054688 37.378906 211.570312 38.023438 215.0625 C 38.671875 218.558594 39.441406 222.027344 40.332031 225.46875 C 41.222656 228.910156 42.230469 232.3125 43.363281 235.683594 C 44.492188 239.054688 45.738281 242.378906 47.101562 245.660156 C 48.464844 248.945312 49.941406 252.175781 51.53125 255.355469 C 53.121094 258.53125 54.820312 261.652344 56.628906 264.710938 C 58.4375 267.769531 60.351562 270.761719 62.367188 273.6875 C 64.386719 276.613281 66.507812 279.464844 68.726562 282.242188 C 84.132812 257.414062 118.054688 230.804688 187.398438 230.804688 C 256.738281 230.804688 290.640625 257.390625 306.070312 282.242188 C 308.289062 279.464844 310.40625 276.613281 312.425781 273.6875 C 314.445312 270.761719 316.359375 267.769531 318.167969 264.710938 C 319.976562 261.652344 321.675781 258.53125 323.265625 255.355469 C 324.855469 252.175781 326.332031 248.945312 327.695312 245.660156 C 329.058594 242.378906 330.304688 239.054688 331.433594 235.683594 C 332.5625 232.3125 333.574219 228.910156 334.464844 225.46875 C 335.355469 222.027344 336.125 218.558594 336.769531 215.0625 C 337.417969 211.570312 337.941406 208.054688 338.34375 204.523438 C 338.742188 200.992188 339.019531 197.453125 339.171875 193.902344 C 339.324219 190.351562 339.351562 186.796875 339.253906 183.246094 C 339.15625 179.691406 338.9375 176.148438 338.589844 172.609375 C 338.246094 169.074219 337.773438 165.550781 337.183594 162.046875 C 336.589844 158.542969 335.875 155.066406 335.035156 151.609375 C 334.199219 148.15625 333.242188 144.734375 332.164062 141.347656 C 331.085938 137.960938 329.894531 134.617188 328.582031 131.3125 C 327.269531 128.011719 325.84375 124.757812 324.300781 121.554688 C 322.761719 118.351562 321.109375 115.207031 319.347656 112.117188 C 317.585938 109.03125 315.71875 106.011719 313.746094 103.054688 C 311.773438 100.097656 309.699219 97.214844 307.523438 94.402344 C 305.347656 91.59375 303.074219 88.863281 300.707031 86.210938 C 298.339844 83.558594 295.882812 80.996094 293.335938 78.515625 C 290.789062 76.035156 288.15625 73.652344 285.441406 71.355469 C 282.726562 69.0625 279.9375 66.867188 277.066406 64.769531 C 274.199219 62.671875 271.261719 60.675781 268.25 58.785156 C 265.242188 56.890625 262.171875 55.109375 259.035156 53.429688 C 255.902344 51.753906 252.714844 50.191406 249.46875 48.738281 C 246.226562 47.285156 242.9375 45.949219 239.597656 44.726562 C 236.261719 43.507812 232.882812 42.402344 229.46875 41.417969 C 226.054688 40.433594 222.609375 39.570312 219.132812 38.828125 C 215.660156 38.085938 212.160156 37.464844 208.640625 36.96875 C 205.125 36.472656 201.589844 36.097656 198.046875 35.851562 C 194.5 35.601562 190.953125 35.476562 187.398438 35.476562 Z M 187.398438 35.476562 " fill-opacity="1" fill-rule="evenodd"/></g></svg>